<?xml version="1.0" encoding="UTF-8"?><svg id="Layer_1" xmlns="http://www.w3.org/2000/svg" viewBox="0 0 1079.79 1079.79"><defs><style>.cls-1{fill:#fff;}.cls-2{fill:#ed3e49;}</style></defs><circle class="cls-2" cx="539.89" cy="539.89" r="539.89"/><path class="cls-1" d="m966.51,483.8h-61.06c-27.03-177.6-180.4-313.69-365.55-313.69-204.22,0-369.78,165.56-369.78,369.78s165.56,369.78,369.78,369.78c184.18,0,336.89-134.66,365.09-310.9h61.52c31.75,0,57.49-25.74,57.49-57.49s-25.74-57.49-57.49-57.49Z"/><path class="cls-2" d="m396.21,507.2c6.51,4.25,9.76,9.51,9.76,15.76,0,10.01-6.76,17.01-16.76,17.01-2.75,0-6.51-1.25-10.76-3.75-6.26-4.25-13.01-6.51-20.02-6.51-9.76,0-17.76,3.25-24.27,9.76-6.25,6.51-9.51,14.51-9.51,24.02s3.25,17.51,9.51,24.02c6.51,6.5,14.51,9.76,24.27,9.76,7.76,0,15.01-2.5,21.27-7.5,4-2.5,7.51-3.75,10.76-3.75,9.26,0,16.26,7,16.26,16.76,0,5.25-2.5,10.01-7.51,14.01-11.26,9.26-25.02,13.76-41.53,13.76-20.02,0-36.53-6.25-49.79-19.02-13.01-12.76-19.52-28.52-19.52-47.54s6.76-35.03,20.27-48.04c13.51-13.26,30.28-19.77,50.29-19.77,14.01,0,26.52,3.75,37.28,11.01Z"/><path class="cls-2" d="m539.59,554.74v58.05c0,9.76-6.76,16.51-16.51,16.51-8.26,0-13.51-3.75-15.51-11.51-9.76,8.51-22.52,12.76-38.53,12.76-30.28,0-49.79-16.26-49.79-39.28,0-11.76,4.75-21.27,14.01-29.02s21.52-11.51,36.78-11.51c13.26,0,24.27,3,33.03,9.26v-5.5c0-17.77-12.01-27.77-29.27-27.77-7.76,0-15.51,2-22.77,6-2.75,1.25-5.5,2-8.51,2-8.26,0-14.01-5.76-14.01-13.76,0-5.75,2.75-10.26,8.51-13.51,11.26-7.51,26.02-11.26,44.03-11.26,36.28,0,58.55,21.77,58.55,58.55Zm-35.28,35.03c0-10.01-9.76-17.76-24.77-17.76-14.01,0-23.77,7.76-23.77,17.76s9.76,17.76,23.77,17.76c15.01,0,24.77-7.76,24.77-17.76Z"/><path class="cls-2" d="m578.63,506.2v-10.01c0-29.02,17.01-45.79,45.04-45.79,8.51,0,15.26.75,20.27,2.5,8.76,2.25,13.26,6.76,13.26,14.01,0,8.26-5.75,14.01-14.01,14.01-1,0-6.01-1-9.26-1-12.76,0-19.02,6.26-19.02,19.02v7.26h25.27c8.76,0,14.76,6,14.76,14.76s-6,14.76-14.76,14.76h-25.27v75.31c0,10.76-7.26,18.26-18.01,18.26s-18.26-7.5-18.26-18.26v-75.31h-10.26c-8.76,0-14.76-6.01-14.76-14.76s6.01-14.76,14.76-14.76h10.26Z"/><path class="cls-2" d="m775.29,514.21c12.76,11.76,19.02,25.52,19.02,40.78,0,9.26-6.01,15.51-15.26,15.51h-81.57c2.25,17.01,16.01,28.52,34.78,28.52,9.76,0,19.02-3.5,27.77-10.26,3.25-2.25,6.5-3.25,10.01-3.25,8.76,0,14.76,5.75,14.76,14.51,0,5-2.75,9.76-8.01,14.26-12.26,10.76-27.77,16.26-47.04,16.26s-36.53-6.25-49.79-19.02c-13.01-12.76-19.52-28.52-19.52-47.54s6.76-35.03,20.02-48.04c13.26-13.26,29.77-19.77,49.54-19.77,17.76,0,32.78,6.01,45.28,18.01Zm-16.01,34.28c-2.25-14.01-15.01-25.27-29.77-25.27-16.01,0-28.77,10.51-32.03,25.27h61.8Z"/></svg>